<svg xmlns="http://www.w3.org/2000/svg" xmlns:xlink="http://www.w3.org/1999/xlink" width="48" zoomAndPan="magnify" viewBox="0 0 36 36.000001" height="48" preserveAspectRatio="xMidYMid meet" version="1.0"><defs><clipPath id="ad7f3e5b1e"><path d="M 2.507812 1.011719 L 35.34375 1.011719 L 35.34375 33.847656 L 2.507812 33.847656 Z M 2.507812 1.011719 " clip-rule="nonzero"/></clipPath><clipPath id="8329c60f77"><path d="M 19 6.664062 L 28.929688 6.664062 L 28.929688 21 L 19 21 Z M 19 6.664062 " clip-rule="nonzero"/></clipPath><clipPath id="1454e5c55d"><path d="M 9.226562 7 L 28 7 L 28 26.363281 L 9.226562 26.363281 Z M 9.226562 7 " clip-rule="nonzero"/></clipPath></defs><g clip-path="url(#ad7f3e5b1e)"><path fill="#5271ff" d="M 19.003906 1.011719 C 28.117188 1.011719 35.503906 8.398438 35.503906 17.507812 C 35.503906 26.621094 28.117188 34.007812 19.007812 34.007812 C 9.894531 34.007812 2.507812 26.621094 2.507812 17.507812 C 2.507812 8.394531 9.894531 1.011719 19.003906 1.011719 Z M 19.003906 1.011719 " fill-opacity="1" fill-rule="nonzero"/></g><g clip-path="url(#8329c60f77)"><path fill="#faad2a" d="M 28.335938 7.8125 L 26.945312 6.890625 C 26.585938 6.65625 26.066406 6.8125 25.78125 7.246094 L 19.785156 16.320312 C 19.640625 16.539062 19.585938 16.785156 19.613281 17.007812 L 19.414062 18.445312 L 19.175781 20.160156 L 20.65625 19.269531 L 21.90625 18.523438 C 22.117188 18.460938 22.324219 18.3125 22.46875 18.09375 L 28.46875 9.019531 C 28.75 8.585938 28.691406 8.046875 28.335938 7.8125 Z M 21.367188 16.457031 C 21.121094 16.828125 20.839844 17.074219 20.738281 17.007812 L 20.34375 16.746094 C 20.242188 16.679688 20.359375 16.324219 20.605469 15.953125 L 25.765625 8.140625 C 26.011719 7.769531 26.292969 7.523438 26.394531 7.589844 L 26.789062 7.851562 C 26.890625 7.921875 26.773438 8.273438 26.53125 8.644531 Z M 22.503906 17.210938 C 22.261719 17.582031 21.980469 17.828125 21.878906 17.761719 L 21.480469 17.5 C 21.378906 17.433594 21.496094 17.078125 21.742188 16.707031 L 26.90625 8.894531 C 27.152344 8.523438 27.429688 8.277344 27.535156 8.34375 L 27.929688 8.605469 C 28.03125 8.671875 27.914062 9.027344 27.667969 9.398438 Z M 22.503906 17.210938 " fill-opacity="1" fill-rule="nonzero"/></g><g clip-path="url(#1454e5c55d)"><path fill="#faad2a" d="M 26.117188 14.394531 L 26.117188 24.078125 C 26.117188 24.429688 25.832031 24.71875 25.480469 24.71875 L 11.527344 24.71875 C 11.175781 24.71875 10.890625 24.429688 10.890625 24.078125 L 10.890625 10.128906 C 10.890625 9.773438 11.175781 9.488281 11.527344 9.488281 L 23.242188 9.488281 L 24.324219 7.847656 L 10.027344 7.847656 C 9.597656 7.847656 9.25 8.195312 9.25 8.625 L 9.25 25.582031 C 9.25 26.007812 9.597656 26.355469 10.027344 26.355469 L 26.984375 26.355469 C 27.410156 26.355469 27.757812 26.007812 27.757812 25.582031 L 27.757812 11.914062 Z M 26.117188 14.394531 " fill-opacity="1" fill-rule="nonzero"/></g><path fill="#faad2a" d="M 21.648438 11.90625 C 21.648438 12.332031 21.300781 12.679688 20.871094 12.679688 L 12.722656 12.679688 C 12.292969 12.679688 11.945312 12.332031 11.945312 11.90625 L 11.945312 11.460938 C 11.945312 11.03125 12.292969 10.6875 12.722656 10.6875 L 20.871094 10.6875 C 21.300781 10.6875 21.648438 11.03125 21.648438 11.460938 Z M 21.648438 11.90625 " fill-opacity="1" fill-rule="nonzero"/><path fill="#faad2a" d="M 19.628906 15.015625 C 19.628906 15.441406 19.351562 15.789062 19.011719 15.789062 L 12.558594 15.789062 C 12.21875 15.789062 11.945312 15.441406 11.945312 15.015625 L 11.945312 14.570312 C 11.945312 14.140625 12.21875 13.792969 12.558594 13.792969 L 19.011719 13.792969 C 19.351562 13.792969 19.628906 14.140625 19.628906 14.570312 Z M 19.628906 15.015625 " fill-opacity="1" fill-rule="nonzero"/><path fill="#faad2a" d="M 18.503906 18.050781 C 18.503906 18.480469 18.269531 18.828125 17.980469 18.828125 L 12.46875 18.828125 C 12.179688 18.828125 11.945312 18.480469 11.945312 18.050781 L 11.945312 17.605469 C 11.945312 17.179688 12.179688 16.832031 12.46875 16.832031 L 17.980469 16.832031 C 18.269531 16.832031 18.503906 17.179688 18.503906 17.605469 Z M 18.503906 18.050781 " fill-opacity="1" fill-rule="nonzero"/><path fill="#faad2a" d="M 18.503906 21.160156 C 18.503906 21.585938 18.269531 21.933594 17.980469 21.933594 L 12.46875 21.933594 C 12.179688 21.933594 11.945312 21.585938 11.945312 21.160156 L 11.945312 20.714844 C 11.945312 20.285156 12.179688 19.9375 12.46875 19.9375 L 17.980469 19.9375 C 18.269531 19.9375 18.503906 20.285156 18.503906 20.714844 Z M 18.503906 21.160156 " fill-opacity="1" fill-rule="nonzero"/></svg>