<svg xmlns="http://www.w3.org/2000/svg" xmlns:xlink="http://www.w3.org/1999/xlink" width="48" zoomAndPan="magnify" viewBox="0 0 36 36.000001" height="48" preserveAspectRatio="xMidYMid meet" version="1.0"><defs><clipPath id="e93cda075e"><path d="M 18 3.503906 L 31.957031 3.503906 L 31.957031 23 L 18 23 Z M 18 3.503906 " clip-rule="nonzero"/></clipPath><clipPath id="7f71256fcc"><path d="M 4.957031 5 L 31 5 L 31 30.503906 L 4.957031 30.503906 Z M 4.957031 5 " clip-rule="nonzero"/></clipPath></defs><g clip-path="url(#e93cda075e)"><path fill="#5d822f" d="M 31.375 5.089844 L 29.453125 3.820312 C 28.960938 3.492188 28.238281 3.710938 27.847656 4.308594 L 19.550781 16.859375 C 19.351562 17.164062 19.273438 17.503906 19.3125 17.808594 L 19.035156 19.800781 L 18.710938 22.167969 L 20.757812 20.941406 L 22.484375 19.90625 C 22.777344 19.820312 23.0625 19.617188 23.261719 19.3125 L 31.558594 6.761719 C 31.953125 6.164062 31.871094 5.417969 31.375 5.089844 Z M 21.738281 17.050781 C 21.398438 17.566406 21.011719 17.90625 20.871094 17.8125 L 20.324219 17.453125 C 20.183594 17.359375 20.34375 16.867188 20.683594 16.355469 L 27.824219 5.550781 C 28.164062 5.035156 28.554688 4.695312 28.695312 4.789062 L 29.238281 5.148438 C 29.378906 5.242188 29.21875 5.734375 28.878906 6.246094 Z M 23.3125 18.09375 C 22.972656 18.605469 22.585938 18.945312 22.445312 18.851562 L 21.898438 18.492188 C 21.757812 18.398438 21.917969 17.90625 22.257812 17.394531 L 29.398438 6.589844 C 29.738281 6.078125 30.128906 5.734375 30.269531 5.828125 L 30.8125 6.191406 C 30.953125 6.28125 30.792969 6.773438 30.453125 7.285156 Z M 23.3125 18.09375 " fill-opacity="1" fill-rule="nonzero"/></g><g clip-path="url(#7f71256fcc)"><path fill="#5d822f" d="M 28.3125 14.199219 L 28.3125 27.59375 C 28.3125 28.078125 27.917969 28.476562 27.429688 28.476562 L 8.132812 28.476562 C 7.644531 28.476562 7.25 28.078125 7.25 27.59375 L 7.25 8.296875 C 7.25 7.808594 7.644531 7.414062 8.132812 7.414062 L 24.332031 7.414062 L 25.832031 5.144531 L 6.054688 5.144531 C 5.460938 5.144531 4.980469 5.625 4.980469 6.21875 L 4.980469 29.667969 C 4.980469 30.261719 5.460938 30.742188 6.054688 30.742188 L 29.507812 30.742188 C 30.097656 30.742188 30.578125 30.261719 30.578125 29.667969 L 30.578125 10.769531 Z M 28.3125 14.199219 " fill-opacity="1" fill-rule="nonzero"/></g><path fill="#5d822f" d="M 22.128906 10.753906 C 22.128906 11.347656 21.648438 11.828125 21.054688 11.828125 L 9.78125 11.828125 C 9.1875 11.828125 8.707031 11.347656 8.707031 10.753906 L 8.707031 10.140625 C 8.707031 9.546875 9.1875 9.066406 9.78125 9.066406 L 21.054688 9.066406 C 21.648438 9.066406 22.128906 9.546875 22.128906 10.140625 Z M 22.128906 10.753906 " fill-opacity="1" fill-rule="nonzero"/><path fill="#5d822f" d="M 19.332031 15.054688 C 19.332031 15.644531 18.953125 16.125 18.484375 16.125 L 9.558594 16.125 C 9.089844 16.125 8.707031 15.644531 8.707031 15.054688 L 8.707031 14.441406 C 8.707031 13.847656 9.089844 13.367188 9.558594 13.367188 L 18.484375 13.367188 C 18.953125 13.367188 19.332031 13.847656 19.332031 14.441406 Z M 19.332031 15.054688 " fill-opacity="1" fill-rule="nonzero"/><path fill="#5d822f" d="M 17.78125 19.253906 C 17.78125 19.847656 17.457031 20.328125 17.054688 20.328125 L 9.433594 20.328125 C 9.03125 20.328125 8.707031 19.847656 8.707031 19.253906 L 8.707031 18.640625 C 8.707031 18.046875 9.03125 17.566406 9.433594 17.566406 L 17.054688 17.566406 C 17.457031 17.566406 17.78125 18.046875 17.78125 18.640625 Z M 17.78125 19.253906 " fill-opacity="1" fill-rule="nonzero"/><path fill="#5d822f" d="M 17.78125 23.554688 C 17.78125 24.144531 17.457031 24.625 17.054688 24.625 L 9.433594 24.625 C 9.03125 24.625 8.707031 24.144531 8.707031 23.554688 L 8.707031 22.9375 C 8.707031 22.347656 9.03125 21.867188 9.433594 21.867188 L 17.054688 21.867188 C 17.457031 21.867188 17.78125 22.347656 17.78125 22.9375 Z M 17.78125 23.554688 " fill-opacity="1" fill-rule="nonzero"/></svg>