<svg xmlns="http://www.w3.org/2000/svg" xmlns:xlink="http://www.w3.org/1999/xlink" width="1024" zoomAndPan="magnify" viewBox="0 0 768 767.999994" height="1024" preserveAspectRatio="xMidYMid meet" version="1.0"><defs><g/></defs><rect x="-76.8" width="921.6" fill="#ffffff" y="-76.799999" height="921.599993" fill-opacity="1"/><rect x="-76.8" width="921.6" fill="#1e1d1d" y="-76.799999" height="921.599993" fill-opacity="1"/><g fill="#ffffff" fill-opacity="1"><g transform="translate(226.275374, 696.288714)"><g><path d="M 12.421875 -219.84375 C 13.054688 -223.03125 13.535156 -225.421875 13.859375 -227.015625 C 14.179688 -228.609375 14.34375 -230.359375 14.34375 -232.265625 C 15.613281 -236.722656 16.722656 -241.023438 17.671875 -245.171875 C 18.628906 -249.316406 18.472656 -253.617188 17.203125 -258.078125 C 17.203125 -261.265625 16.882812 -263.175781 16.25 -263.8125 C 14.976562 -266.363281 14.660156 -268.753906 15.296875 -270.984375 C 15.929688 -273.210938 16.566406 -274.960938 17.203125 -276.234375 C 21.023438 -282.609375 22.617188 -288.984375 21.984375 -295.359375 C 21.347656 -298.546875 21.503906 -301.726562 22.453125 -304.90625 C 23.410156 -308.09375 24.210938 -311.28125 24.859375 -314.46875 C 26.128906 -320.84375 27.398438 -325.941406 28.671875 -329.765625 C 29.304688 -331.679688 29.941406 -333.59375 30.578125 -335.5 C 31.222656 -337.414062 31.863281 -339.644531 32.5 -342.1875 C 31.863281 -342.820312 31.382812 -343.457031 31.0625 -344.09375 C 30.75 -344.738281 29.953125 -345.378906 28.671875 -346.015625 C 29.953125 -346.648438 30.910156 -347.285156 31.546875 -347.921875 C 32.179688 -348.566406 32.816406 -348.890625 33.453125 -348.890625 C 34.085938 -351.429688 34.40625 -353.65625 34.40625 -355.5625 C 34.40625 -357.476562 34.722656 -359.394531 35.359375 -361.3125 C 36.640625 -364.5 37.753906 -367.84375 38.703125 -371.34375 C 39.660156 -374.851562 40.457031 -377.878906 41.09375 -380.421875 C 41.738281 -383.609375 42.378906 -386.796875 43.015625 -389.984375 C 43.648438 -393.171875 44.285156 -396.039062 44.921875 -398.59375 C 46.203125 -401.769531 47.632812 -405.269531 49.21875 -409.09375 C 50.8125 -412.925781 50.972656 -417.070312 49.703125 -421.53125 C 55.441406 -424.71875 58.945312 -430.453125 60.21875 -438.734375 C 61.488281 -445.742188 64.035156 -452.4375 67.859375 -458.8125 C 69.773438 -461.988281 71.367188 -465.171875 72.640625 -468.359375 C 73.921875 -471.546875 74.878906 -475.367188 75.515625 -479.828125 C 76.148438 -483.015625 77.582031 -486.203125 79.8125 -489.390625 C 82.039062 -492.578125 84.113281 -495.765625 86.03125 -498.953125 C 87.9375 -502.773438 90.003906 -506.753906 92.234375 -510.890625 C 94.460938 -515.035156 96.535156 -519.335938 98.453125 -523.796875 C 99.085938 -525.078125 99.40625 -526.351562 99.40625 -527.625 C 99.40625 -528.894531 99.722656 -529.851562 100.359375 -530.5 C 103.546875 -532.40625 105.617188 -534.953125 106.578125 -538.140625 C 107.535156 -541.328125 108.648438 -544.195312 109.921875 -546.75 C 111.835938 -550.570312 114.066406 -554.394531 116.609375 -558.21875 C 119.160156 -562.039062 121.710938 -565.863281 124.265625 -569.6875 C 126.804688 -574.144531 129.671875 -577.644531 132.859375 -580.1875 C 136.046875 -582.738281 139.550781 -584.972656 143.375 -586.890625 C 148.46875 -588.160156 150.0625 -591.023438 148.15625 -595.484375 C 148.15625 -597.398438 148.789062 -598.992188 150.0625 -600.265625 C 153.25 -602.816406 156.4375 -605.046875 159.625 -606.953125 C 162.8125 -608.867188 166 -611.101562 169.1875 -613.65625 C 173.007812 -614.925781 176.195312 -616.195312 178.75 -617.46875 C 180.019531 -621.289062 181.128906 -623.519531 182.078125 -624.15625 C 183.035156 -624.800781 185.425781 -625.125 189.25 -625.125 C 191.800781 -625.757812 194.191406 -626.875 196.421875 -628.46875 C 198.648438 -630.0625 201.039062 -631.175781 203.59375 -631.8125 C 203.59375 -631.8125 204.226562 -632.445312 205.5 -633.71875 C 207.414062 -636.90625 209.644531 -637.863281 212.1875 -636.59375 C 214.738281 -635.320312 217.289062 -635.003906 219.84375 -635.640625 C 221.757812 -636.273438 223.671875 -637.707031 225.578125 -639.9375 C 227.492188 -642.164062 230.039062 -641.6875 233.21875 -638.5 C 236.40625 -637.226562 238.957031 -636.910156 240.875 -637.546875 C 247.25 -638.816406 253.144531 -638.335938 258.5625 -636.109375 C 263.976562 -633.878906 269.550781 -632.128906 275.28125 -630.859375 C 275.28125 -630.222656 275.4375 -629.90625 275.75 -629.90625 C 276.070312 -629.90625 276.234375 -629.90625 276.234375 -629.90625 C 278.785156 -629.90625 280.0625 -629.582031 280.0625 -628.9375 C 280.0625 -625.113281 281.65625 -622.882812 284.84375 -622.25 C 288.03125 -621.613281 290.578125 -620.019531 292.484375 -617.46875 C 295.035156 -612.375 296.3125 -606.957031 296.3125 -601.21875 C 296.3125 -598.039062 297.265625 -595.492188 299.171875 -593.578125 C 301.085938 -591.671875 303.003906 -589.757812 304.921875 -587.84375 C 304.273438 -587.207031 303.472656 -586.25 302.515625 -584.96875 C 301.566406 -583.695312 300.453125 -582.425781 299.171875 -581.15625 C 298.535156 -580.519531 297.738281 -580.039062 296.78125 -579.71875 C 295.832031 -579.394531 294.71875 -578.914062 293.4375 -578.28125 C 290.257812 -577.644531 286.597656 -576.6875 282.453125 -575.40625 C 278.304688 -574.132812 274.640625 -572.863281 271.453125 -571.59375 C 267.628906 -570.320312 263.960938 -568.566406 260.453125 -566.328125 C 256.953125 -564.097656 253.613281 -561.710938 250.4375 -559.171875 C 249.15625 -557.890625 247.878906 -556.929688 246.609375 -556.296875 C 240.234375 -555.023438 237.363281 -552.796875 238 -549.609375 C 234.8125 -546.421875 231.785156 -543.550781 228.921875 -541 C 226.054688 -538.457031 223.347656 -535.59375 220.796875 -532.40625 C 218.242188 -529.21875 216.007812 -525.394531 214.09375 -520.9375 C 212.1875 -516.476562 210.597656 -511.695312 209.328125 -506.59375 C 207.421875 -505.320312 205.507812 -504.207031 203.59375 -503.25 C 201.6875 -502.289062 200.09375 -500.21875 198.8125 -497.03125 C 197.539062 -493.851562 195.789062 -490.671875 193.5625 -487.484375 C 191.332031 -484.296875 189.257812 -481.109375 187.34375 -477.921875 C 186.070312 -475.367188 185.4375 -473.457031 185.4375 -472.1875 C 185.4375 -470.914062 185.113281 -469.957031 184.46875 -469.3125 C 183.832031 -468.675781 183.195312 -467.722656 182.5625 -466.453125 C 176.1875 -458.804688 172.046875 -451.160156 170.140625 -443.515625 C 169.503906 -439.054688 168.070312 -434.59375 165.84375 -430.125 C 163.613281 -425.664062 161.222656 -421.207031 158.671875 -416.75 C 158.035156 -414.195312 157.078125 -411.644531 155.796875 -409.09375 C 154.523438 -406.550781 154.207031 -403.6875 154.84375 -400.5 C 154.84375 -399.226562 154.523438 -398.269531 153.890625 -397.625 C 150.066406 -389.976562 146.878906 -382.171875 144.328125 -374.203125 C 141.785156 -366.242188 139.554688 -358.125 137.640625 -349.84375 C 137.003906 -347.289062 136.046875 -345.054688 134.765625 -343.140625 C 133.492188 -341.234375 133.175781 -338.6875 133.8125 -335.5 C 134.457031 -334.863281 134.140625 -333.90625 132.859375 -332.625 C 131.585938 -331.351562 130.3125 -330.082031 129.03125 -328.8125 C 129.03125 -328.8125 129.671875 -327.535156 130.953125 -324.984375 C 130.953125 -324.984375 130.789062 -324.984375 130.46875 -324.984375 C 130.15625 -324.984375 130 -324.984375 130 -324.984375 C 129.351562 -323.710938 129.03125 -322.117188 129.03125 -320.203125 C 129.03125 -318.296875 128.710938 -316.703125 128.078125 -315.421875 C 128.078125 -313.515625 127.914062 -311.601562 127.59375 -309.6875 C 127.28125 -307.78125 126.804688 -305.867188 126.171875 -303.953125 C 124.898438 -298.222656 123.304688 -292.488281 121.390625 -286.75 C 119.484375 -281.019531 117.890625 -275.285156 116.609375 -269.546875 C 116.609375 -269.546875 116.609375 -269.226562 116.609375 -268.59375 C 117.890625 -262.851562 117.734375 -257.273438 116.140625 -251.859375 C 114.546875 -246.441406 114.066406 -241.1875 114.703125 -236.09375 C 114.703125 -233.539062 114.066406 -230.992188 112.796875 -228.453125 C 112.148438 -223.984375 111.507812 -219.835938 110.875 -216.015625 C 110.238281 -212.191406 110.878906 -208.050781 112.796875 -203.59375 C 113.429688 -202.320312 113.75 -200.726562 113.75 -198.8125 C 110.5625 -189.257812 110.242188 -181.296875 112.796875 -174.921875 C 110.242188 -170.460938 109.441406 -166.320312 110.390625 -162.5 C 111.347656 -158.675781 112.148438 -154.53125 112.796875 -150.0625 C 112.796875 -145.601562 112.953125 -141.300781 113.265625 -137.15625 C 113.585938 -133.019531 114.703125 -128.722656 116.609375 -124.265625 C 117.242188 -122.984375 117.5625 -121.390625 117.5625 -119.484375 C 116.289062 -116.929688 115.8125 -114.21875 116.125 -111.34375 C 116.445312 -108.476562 116.925781 -105.773438 117.5625 -103.234375 C 118.84375 -98.773438 120.117188 -94.628906 121.390625 -90.796875 C 122.660156 -86.972656 123.9375 -83.472656 125.21875 -80.296875 C 125.851562 -78.378906 126.804688 -76.144531 128.078125 -73.59375 C 131.265625 -74.875 134.132812 -75.988281 136.6875 -76.9375 C 139.238281 -77.894531 141.785156 -78.691406 144.328125 -79.328125 C 144.960938 -80.609375 145.28125 -81.722656 145.28125 -82.671875 C 145.28125 -83.628906 145.601562 -84.75 146.25 -86.03125 C 151.34375 -87.300781 155.484375 -89.367188 158.671875 -92.234375 C 161.859375 -95.109375 164.722656 -98.457031 167.265625 -102.28125 C 168.546875 -104.820312 169.660156 -107.046875 170.609375 -108.953125 C 171.566406 -110.867188 173.320312 -112.148438 175.875 -112.796875 C 177.144531 -112.796875 177.78125 -113.429688 177.78125 -114.703125 C 180.332031 -119.160156 183.203125 -123.140625 186.390625 -126.640625 C 189.578125 -130.148438 192.765625 -133.179688 195.953125 -135.734375 C 199.773438 -138.921875 203.4375 -142.425781 206.9375 -146.25 C 210.445312 -150.070312 213.789062 -153.578125 216.96875 -156.765625 C 220.15625 -159.304688 223.179688 -161.53125 226.046875 -163.4375 C 228.921875 -165.351562 231.632812 -167.585938 234.1875 -170.140625 C 234.1875 -170.140625 234.34375 -170.296875 234.65625 -170.609375 C 234.976562 -170.929688 235.140625 -171.410156 235.140625 -172.046875 C 238.328125 -177.148438 240.554688 -180.335938 241.828125 -181.609375 C 243.097656 -182.878906 246.285156 -184.789062 251.390625 -187.34375 C 250.753906 -187.34375 249.160156 -187.976562 246.609375 -189.25 C 250.429688 -193.71875 254.09375 -197.863281 257.59375 -201.6875 C 261.101562 -205.507812 264.769531 -209.332031 268.59375 -213.15625 C 269.863281 -211.875 270.5 -211.234375 270.5 -211.234375 C 272.414062 -210.597656 274.328125 -209.960938 276.234375 -209.328125 C 278.148438 -208.691406 279.742188 -208.375 281.015625 -208.375 C 284.203125 -207.738281 287.707031 -208.054688 291.53125 -209.328125 C 294.71875 -204.867188 297.582031 -200.566406 300.125 -196.421875 C 302.675781 -192.285156 306.820312 -188.941406 312.5625 -186.390625 C 310.007812 -183.835938 307.773438 -181.128906 305.859375 -178.265625 C 303.953125 -175.398438 302.046875 -172.691406 300.140625 -170.140625 C 295.671875 -165.679688 293.4375 -159.945312 293.4375 -152.9375 C 293.4375 -150.382812 292.164062 -147.832031 289.625 -145.28125 C 287.070312 -143.375 285.796875 -140.828125 285.796875 -137.640625 C 285.796875 -134.453125 284.519531 -132.222656 281.96875 -130.953125 C 280.695312 -130.316406 279.898438 -129.039062 279.578125 -127.125 C 279.265625 -125.21875 278.789062 -123.625 278.15625 -122.34375 C 273.050781 -112.789062 265.722656 -103.234375 256.171875 -93.671875 C 253.617188 -90.484375 251.382812 -86.34375 249.46875 -81.25 C 248.195312 -79.332031 246.609375 -77.738281 244.703125 -76.46875 C 242.148438 -73.914062 240.550781 -72.160156 239.90625 -71.203125 C 239.269531 -70.253906 238.953125 -68.1875 238.953125 -65 C 235.773438 -62.445312 232.59375 -59.578125 229.40625 -56.390625 C 226.21875 -53.203125 223.03125 -50.019531 219.84375 -46.84375 C 215.382812 -42.375 211.242188 -37.910156 207.421875 -33.453125 C 203.597656 -28.992188 199.453125 -24.535156 194.984375 -20.078125 C 192.441406 -17.523438 189.578125 -15.609375 186.390625 -14.328125 C 183.203125 -13.054688 180.015625 -11.46875 176.828125 -9.5625 C 173.640625 -8.28125 171.726562 -6.6875 171.09375 -4.78125 C 168.539062 1.59375 164.71875 5.734375 159.625 7.640625 C 154.53125 9.554688 149.429688 11.148438 144.328125 12.421875 C 142.421875 13.054688 139.238281 12.738281 134.78125 11.46875 C 131.59375 10.195312 128.5625 9.5625 125.6875 9.5625 C 122.820312 9.5625 119.796875 10.832031 116.609375 13.375 C 115.335938 14.65625 113.742188 14.65625 111.828125 13.375 C 109.285156 12.738281 106.738281 12.101562 104.1875 11.46875 C 101.632812 10.832031 99.722656 9.878906 98.453125 8.609375 C 92.078125 1.597656 84.429688 -4.140625 75.515625 -8.609375 C 76.148438 -11.785156 75.03125 -13.210938 72.15625 -12.890625 C 69.289062 -12.578125 67.222656 -13.695312 65.953125 -16.25 C 65.316406 -18.15625 64.039062 -20.066406 62.125 -21.984375 C 60.21875 -23.898438 58.625 -25.492188 57.34375 -26.765625 C 56.707031 -28.035156 56.070312 -29.148438 55.4375 -30.109375 C 54.800781 -31.066406 54.484375 -31.863281 54.484375 -32.5 C 53.847656 -36.320312 52.414062 -39.828125 50.1875 -43.015625 C 47.957031 -46.203125 47.160156 -50.023438 47.796875 -54.484375 C 47.796875 -55.117188 47.472656 -55.914062 46.828125 -56.875 C 46.191406 -57.832031 45.554688 -58.628906 44.921875 -59.265625 C 43.648438 -61.171875 42.054688 -63.078125 40.140625 -64.984375 C 38.234375 -66.898438 36.960938 -68.816406 36.328125 -70.734375 C 35.679688 -73.285156 35.359375 -75.832031 35.359375 -78.375 C 35.359375 -80.925781 35.359375 -83.476562 35.359375 -86.03125 C 35.359375 -89.21875 35.359375 -90.8125 35.359375 -90.8125 C 31.535156 -94.632812 29.785156 -99.09375 30.109375 -104.1875 C 30.429688 -109.28125 29.632812 -114.0625 27.71875 -118.53125 C 27.71875 -119.800781 27.398438 -120.753906 26.765625 -121.390625 C 22.941406 -125.210938 21.664062 -129.992188 22.9375 -135.734375 C 22.9375 -137.003906 22.617188 -138.59375 21.984375 -140.5 C 21.347656 -142.414062 20.710938 -144.648438 20.078125 -147.203125 C 18.796875 -150.390625 18.472656 -153.253906 19.109375 -155.796875 C 20.390625 -158.984375 20.070312 -163.128906 18.15625 -168.234375 C 16.882812 -171.410156 16.40625 -174.59375 16.71875 -177.78125 C 17.039062 -180.96875 17.203125 -184.15625 17.203125 -187.34375 C 17.203125 -193.082031 17.039062 -198.816406 16.71875 -204.546875 C 16.40625 -210.285156 14.972656 -215.382812 12.421875 -219.84375 Z M 12.421875 -219.84375 "/></g></g></g></svg>