<svg xmlns="http://www.w3.org/2000/svg" xmlns:xlink="http://www.w3.org/1999/xlink" width="48" zoomAndPan="magnify" viewBox="0 0 36 36.000001" height="48" preserveAspectRatio="xMidYMid meet" version="1.0"><defs><clipPath id="d036e8b139"><path d="M 10.65625 10.167969 L 25.25 10.167969 L 25.25 24.761719 L 10.65625 24.761719 Z M 10.65625 10.167969 " clip-rule="nonzero"/></clipPath><clipPath id="9ca7602e7a"><path d="M 18 13.082031 L 22.507812 13.082031 L 22.507812 20 L 18 20 Z M 18 13.082031 " clip-rule="nonzero"/></clipPath><clipPath id="a05765dc11"><path d="M 13.75 13.082031 L 22.507812 13.082031 L 22.507812 21.839844 L 13.75 21.839844 Z M 13.75 13.082031 " clip-rule="nonzero"/></clipPath></defs><g clip-path="url(#d036e8b139)"><path fill="#5271ff" d="M 17.996094 10.167969 C 22.054688 10.167969 25.339844 13.457031 25.339844 17.511719 C 25.339844 21.566406 22.054688 24.855469 17.996094 24.855469 C 13.941406 24.855469 10.65625 21.566406 10.65625 17.511719 C 10.65625 13.457031 13.941406 10.167969 17.996094 10.167969 Z M 17.996094 10.167969 " fill-opacity="1" fill-rule="nonzero"/></g><g clip-path="url(#9ca7602e7a)"><path fill="#faad2a" d="M 22.339844 13.601562 L 21.714844 13.1875 C 21.554688 13.082031 21.320312 13.152344 21.191406 13.34375 L 18.496094 17.425781 C 18.429688 17.523438 18.40625 17.636719 18.417969 17.734375 L 18.328125 18.382812 L 18.222656 19.152344 L 18.886719 18.753906 L 19.449219 18.417969 C 19.542969 18.390625 19.636719 18.324219 19.703125 18.222656 L 22.398438 14.144531 C 22.527344 13.949219 22.5 13.707031 22.339844 13.601562 Z M 19.207031 17.488281 C 19.097656 17.65625 18.96875 17.765625 18.925781 17.734375 L 18.746094 17.617188 C 18.703125 17.589844 18.753906 17.429688 18.863281 17.261719 L 21.183594 13.75 C 21.296875 13.582031 21.421875 13.472656 21.46875 13.5 L 21.644531 13.621094 C 21.691406 13.648438 21.640625 13.808594 21.527344 13.976562 Z M 19.71875 17.828125 C 19.609375 17.992188 19.480469 18.105469 19.4375 18.074219 L 19.257812 17.957031 C 19.214844 17.925781 19.265625 17.765625 19.375 17.601562 L 21.695312 14.085938 C 21.808594 13.921875 21.933594 13.808594 21.980469 13.839844 L 22.15625 13.957031 C 22.203125 13.988281 22.152344 14.148438 22.039062 14.3125 Z M 19.71875 17.828125 " fill-opacity="1" fill-rule="nonzero"/></g><g clip-path="url(#a05765dc11)"><path fill="#faad2a" d="M 21.34375 16.5625 L 21.34375 20.914062 C 21.34375 21.074219 21.214844 21.203125 21.054688 21.203125 L 14.78125 21.203125 C 14.625 21.203125 14.496094 21.074219 14.496094 20.914062 L 14.496094 14.640625 C 14.496094 14.484375 14.625 14.355469 14.78125 14.355469 L 20.050781 14.355469 L 20.539062 13.617188 L 14.109375 13.617188 C 13.914062 13.617188 13.757812 13.773438 13.757812 13.964844 L 13.757812 21.589844 C 13.757812 21.785156 13.914062 21.9375 14.109375 21.9375 L 21.730469 21.9375 C 21.925781 21.9375 22.082031 21.785156 22.082031 21.589844 L 22.082031 15.445312 Z M 21.34375 16.5625 " fill-opacity="1" fill-rule="nonzero"/></g><path fill="#faad2a" d="M 19.332031 15.441406 C 19.332031 15.632812 19.175781 15.789062 18.984375 15.789062 L 15.320312 15.789062 C 15.125 15.789062 14.96875 15.632812 14.96875 15.441406 L 14.96875 15.242188 C 14.96875 15.050781 15.125 14.894531 15.320312 14.894531 L 18.984375 14.894531 C 19.175781 14.894531 19.332031 15.050781 19.332031 15.242188 Z M 19.332031 15.441406 " fill-opacity="1" fill-rule="nonzero"/><path fill="#faad2a" d="M 18.425781 16.839844 C 18.425781 17.03125 18.300781 17.1875 18.148438 17.1875 L 15.246094 17.1875 C 15.09375 17.1875 14.96875 17.03125 14.96875 16.839844 L 14.96875 16.640625 C 14.96875 16.445312 15.09375 16.289062 15.246094 16.289062 L 18.148438 16.289062 C 18.300781 16.289062 18.425781 16.445312 18.425781 16.640625 Z M 18.425781 16.839844 " fill-opacity="1" fill-rule="nonzero"/><path fill="#faad2a" d="M 17.917969 18.203125 C 17.917969 18.398438 17.8125 18.554688 17.683594 18.554688 L 15.207031 18.554688 C 15.074219 18.554688 14.96875 18.398438 14.96875 18.203125 L 14.96875 18.003906 C 14.96875 17.8125 15.074219 17.65625 15.207031 17.65625 L 17.683594 17.65625 C 17.8125 17.65625 17.917969 17.8125 17.917969 18.003906 Z M 17.917969 18.203125 " fill-opacity="1" fill-rule="nonzero"/><path fill="#faad2a" d="M 17.917969 19.601562 C 17.917969 19.796875 17.8125 19.949219 17.683594 19.949219 L 15.207031 19.949219 C 15.074219 19.949219 14.96875 19.796875 14.96875 19.601562 L 14.96875 19.402344 C 14.96875 19.210938 15.074219 19.054688 15.207031 19.054688 L 17.683594 19.054688 C 17.8125 19.054688 17.917969 19.210938 17.917969 19.402344 Z M 17.917969 19.601562 " fill-opacity="1" fill-rule="nonzero"/></svg>